
		<svg width="3419.753666290199" height="1721.2851790925918" xmlns="http://www.w3.org/2000/svg" xmlns:xlink="http://www.w3.org/1999/xlink" version="1.1">
            <g transform="scale(20.987683314509948) translate(10, 10)">
				<defs xmlns="http://www.w3.org/2000/svg" id="SvgjsDefs1002"/><g xmlns="http://www.w3.org/2000/svg" id="main_text" fill="#ffffff" transform="translate(-2.173 -16.539)" name="main_text" xmlns:name="mainText_mainfill" rel="mainfill"><path d="M 5.83 40.545 l -3.445 0 q -0.106 -0.424 -0.159 -0.9805 t -0.053 -1.0865 t 0.053 -1.0865 t 0.159 -0.9805 l 8.586 0 l 0 27.189 q -0.583 0.106 -1.2985 0.159 t -1.2985 0.053 q -0.53 0 -1.2455 -0.053 t -1.2985 -0.159 l 0 -23.055 Z M 4.664 30.422 q -0.106 -0.636 -0.1325 -1.378 t -0.0265 -1.325 t 0.0265 -1.325 t 0.1325 -1.325 q 0.689 -0.106 1.484 -0.159 t 1.378 -0.053 t 1.378 0.053 t 1.431 0.159 q 0.106 0.583 0.1325 1.325 t 0.0265 1.325 t -0.0265 1.325 t -0.1325 1.378 q -0.636 0.106 -1.4045 0.159 t -1.3515 0.053 q -0.636 0 -1.431 -0.053 t -1.484 -0.159 Z M 19.504 36.411 q 0.583 -0.106 1.1395 -0.159 t 1.1395 -0.053 t 1.0865 0.053 t 1.0865 0.159 q 0.159 0.795 0.318 2.1465 t 0.159 2.2525 q 0.53 -0.901 1.3515 -1.802 t 1.8815 -1.6165 t 2.438 -1.166 t 3.021 -0.4505 q 4.664 0 6.89 2.6765 t 2.226 7.9235 l 0 17.225 q -0.583 0.106 -1.325 0.159 t -1.325 0.053 t -1.2985 -0.053 t -1.2985 -0.159 l 0 -15.794 q 0 -3.763 -1.166 -5.5385 t -3.71 -1.7755 q -1.484 0 -2.809 0.53 t -2.332 1.643 t -1.6165 2.8885 t -0.6095 4.2665 l 0 13.78 q -0.583 0.106 -1.2985 0.159 t -1.2985 0.053 t -1.325 -0.053 t -1.325 -0.159 l 0 -27.189 Z M 61.162 64.236 q -3.18 0 -5.565 -1.0865 t -3.975 -2.9945 t -2.3585 -4.505 t -0.7685 -5.618 t 0.7685 -5.618 t 2.3585 -4.505 t 3.975 -3.021 t 5.565 -1.113 t 5.565 1.113 t 3.975 3.021 t 2.3585 4.505 t 0.7685 5.618 t -0.7685 5.618 t -2.3585 4.505 t -3.975 2.9945 t -5.565 1.0865 Z M 61.162 60.049 q 3.657 0 5.406 -2.65 t 1.749 -7.367 t -1.749 -7.3405 t -5.406 -2.6235 t -5.3795 2.6235 t -1.7225 7.3405 t 1.7225 7.367 t 5.3795 2.65 Z M 80.719 36.411 q 0.583 -0.106 1.113 -0.159 t 1.113 -0.053 t 1.166 0.053 t 1.06 0.159 q 0.159 0.795 0.318 2.0935 t 0.159 2.1995 q 1.113 -1.802 2.9415 -3.127 t 4.6905 -1.325 q 0.424 0 0.8745 0.0265 t 0.7685 0.0795 q 0.106 0.477 0.159 1.007 t 0.053 1.113 q 0 0.636 -0.0795 1.325 t -0.1855 1.325 q -0.424 -0.106 -0.8745 -0.106 l -0.7155 0 q -1.431 0 -2.7295 0.3975 t -2.332 1.4045 t -1.643 2.756 t -0.6095 4.505 l 0 13.515 q -0.583 0.106 -1.2985 0.159 t -1.2985 0.053 t -1.2985 -0.053 t -1.3515 -0.159 l 0 -27.189 Z M 100.223 24.751 q 0.583 -0.106 1.2985 -0.159 t 1.2985 -0.053 t 1.325 0.053 t 1.325 0.159 l 0 38.849 q -0.583 0.106 -1.325 0.159 t -1.325 0.053 t -1.2985 -0.053 t -1.2985 -0.159 l 0 -38.849 Z M 106.901 49.502 l 8.639 -13.091 q 0.689 -0.106 1.378 -0.159 t 1.431 -0.053 q 0.795 0 1.5105 0.053 t 1.4575 0.159 l -8.639 12.72 l 10.123 14.469 q -0.742 0.106 -1.431 0.159 t -1.431 0.053 t -1.484 -0.053 t -1.484 -0.159 Z M 127.2 58.671 q 1.431 0.583 3.1535 0.9275 t 3.4185 0.3445 q 1.219 0 2.332 -0.265 t 1.9345 -0.795 t 1.325 -1.2985 t 0.5035 -1.7225 q 0 -1.06 -0.3975 -1.749 t -1.06 -1.166 t -1.537 -0.8215 t -1.8815 -0.6625 l -1.855 -0.689 q -3.392 -1.272 -4.929 -2.862 t -1.537 -4.293 q 0 -3.604 2.5705 -5.724 t 7.5525 -2.12 q 2.067 0 4.0545 0.3975 t 3.4715 0.9275 q -0.106 1.06 -0.3975 2.12 t -0.7155 1.961 q -1.166 -0.424 -2.7825 -0.8215 t -3.4715 -0.3975 q -1.961 0 -3.4715 0.689 t -1.5105 2.438 q 0 0.901 0.371 1.537 t 1.007 1.0865 t 1.4575 0.7685 t 1.7755 0.636 l 2.332 0.795 q 1.272 0.424 2.4115 1.007 t 1.961 1.4575 t 1.325 2.12 t 0.5035 2.9945 q 0 1.961 -0.795 3.5775 t -2.2525 2.756 t -3.5245 1.7755 t -4.558 0.636 q -2.544 0 -4.452 -0.3445 t -3.551 -0.9275 q 0.106 -1.06 0.4505 -2.1465 t 0.7685 -2.1465 Z"/></g><g xmlns="http://www.w3.org/2000/svg" id="slogan_text" fill="#ffffff" transform="translate(9.17739 38.0804)" name="slogan_text" xmlns:name="sloganText_mainfill" rel="mainfill"><path d="M 0.32227 23.8379 q -0.3125 -0.0488281 -0.3125 -0.371094 q -0.00976563 -0.527344 -0.00976563 -1.03516 l 0 -1.0352 q 0 -0.292969 0.0292969 -0.585938 q 0.0195313 -0.214844 0.0195313 -0.400391 t -0.0097656 -0.3418 q -0.00976563 -0.0976563 -0.0195313 -0.234375 t -0.019531 -0.32227 q 0 -0.0976563 0.00488281 -0.234375 t 0.014648 -0.32227 q 0.00976563 -0.136719 0.0146484 -0.239258 t 0.0048828 -0.18066 l 0 -0.21484 l 0 -0.0097656 l 0 -0.078125 q -0.0292969 -0.244141 0.00976563 -0.341797 q 0.0292969 -0.0683594 0.126953 -0.136719 q 0.380859 -0.195313 0.46875 0.244141 q 0.078125 0.332031 0.0927734 0.649414 t -0.014648 0.62988 l 0 0.0097656 q -0.0292969 0.302734 -0.0146484 0.605469 t -0.014648 0.60547 q -0.0292969 0.263672 -0.0488281 0.458984 t -0.029297 0.33203 q -0.0195313 0.195313 -0.0195313 0.405273 t 0.0097656 0.44434 q 0.00976563 0.0488281 0.00976563 0.112305 l 0 0.15137 l 0 0.3125 t 0.0097656 0.30273 q 0 0.107422 0.00488281 0.200195 t -0.0048828 0.19043 q 0 0.195313 -0.00976563 0.214844 q -0.0390625 0.185547 -0.292969 0.214844 Z M 3.90625 23.6328 q -0.0390625 0.175781 -0.302734 0.205078 q -0.273438 -0.00976563 -0.273438 -0.302734 q 0 -0.761719 -0.0341797 -1.53809 t 0.043945 -1.5381 l 0 -0.0097656 q 0 -0.224609 0.00488281 -0.439453 t -0.014648 -0.41992 l -0.078125 -0.74219 q -0.0292969 -0.3125 0.0976563 -0.673828 q 0.0976563 -0.253906 0.263672 -0.302734 q 0.136719 -0.0292969 0.283203 0.136719 q 0.136719 0.146484 0.205078 0.253906 q 0.126953 0.185547 0.258789 0.332031 t 0.25879 0.27344 q 0.107422 0.126953 0.219727 0.219727 t 0.21973 0.20996 q 0.0976563 0.0976563 0.214844 0.249023 t 0.25391 0.35645 l 0.42969 0.66406 q 0.0488281 0.0683594 0.102539 0.15625 t 0.13184 0.20508 l 0.0097656 0.0097656 q 0.205078 0.273438 0.429688 0.517578 q 0.107422 0.117188 0.214844 0.219727 t 0.22461 0.20996 q 0.107422 0.126953 0.253906 0.078125 q 0.224609 -0.0585938 0.214844 -0.449219 q 0 -0.0976563 -0.0146484 -0.205078 t -0.014648 -0.21484 q -0.00976563 -0.078125 -0.0195313 -0.151367 t -0.0097656 -0.16113 q 0 -0.0390625 -0.00488281 -0.0878906 t -0.0048828 -0.10742 q 0.0390625 -0.859375 -0.0585938 -1.60156 q -0.00976563 -0.0488281 -0.00976563 -0.161133 t 0.019531 -0.28809 q 0.00976563 -0.214844 0.0585938 -0.458984 q 0.0292969 -0.351563 0.3125 -0.351563 q 0.3125 0 0.3125 0.371094 q 0.00976563 0.302734 0.0244141 0.610352 t 0.014648 0.61035 q 0.00976563 0.449219 -0.0195313 0.898438 t -0.0097656 0.89844 q 0.0195313 0.302734 0.0146484 0.595703 t -0.014648 0.58594 q 0 0.166016 0.00488281 0.327148 t 0.0048828 0.30762 l 0 0.39063 q -0.00976563 0.0585938 -0.0146484 0.117188 t -0.0048828 0.10742 q -0.00976563 0.00976563 -0.00976563 0.0195313 t -0.0097656 0.0097656 q -0.107422 0.146484 -0.332031 0.146484 q -0.263672 0.0195313 -0.400391 -0.166016 q -0.146484 -0.185547 -0.268555 -0.400391 t -0.26855 -0.41992 q -0.175781 -0.234375 -0.385742 -0.50293 t -0.46387 -0.57129 q -0.0976563 -0.107422 -0.273438 -0.390625 l -0.3418 -0.54688 q -0.126953 -0.195313 -0.253906 -0.395508 t -0.26367 -0.38574 q -0.0585938 -0.0683594 -0.126953 -0.151367 t -0.14648 -0.1416 t -0.17578 -0.087891 t -0.19531 0 q -0.263672 0.078125 -0.244141 0.537109 q 0.00976563 0.332031 0.0146484 0.625 t 0.024414 0.54688 q 0.0195313 0.205078 -0.00488281 0.410156 t -0.024414 0.40039 l 0 0.76172 q 0 0.244141 -0.0146484 0.439453 t -0.03418 0.35156 Z M 14.9804 18.3594 l 0.029297 0.029297 q 0.107422 0.126953 0.200195 0.283203 t 0.1709 0.35156 q 0.0585938 0.136719 0.131836 0.258789 t 0.12207 0.25879 q 0.078125 0.214844 0.117188 0.390625 t 0.048828 0.33203 t 0.0048828 0.33691 t -0.03418 0.40527 q -0.0195313 0.195313 -0.0195313 0.385742 t -0.039063 0.38574 q -0.0488281 0.253906 -0.151367 0.50293 t -0.23926 0.47363 q -0.244141 0.390625 -0.683594 0.712891 l -0.078125 0.039063 q -0.107422 0.078125 -0.185547 0.0878906 q -0.107422 0.0488281 -0.205078 0.0830078 t -0.18555 0.053711 q -0.507813 0.117188 -1.04492 0.102539 t -1.0449 -0.0048828 q -0.185547 0 -0.449219 0.00488281 t -0.41992 -0.092773 q -0.136719 -0.0683594 -0.175781 -0.263672 q -0.00976563 -0.0390625 -0.00976563 -0.166016 q 0 -0.46875 0.00976563 -0.932617 t 0.029297 -0.93262 q 0.0195313 -0.234375 -0.00976563 -0.483398 t -0.029297 -0.49316 l 0 -1.0156 l 0 -0.82031 q 0 -0.585938 0.146484 -0.761719 q 0.15625 -0.166016 0.478516 -0.15625 q 0.166016 0.00976563 0.307617 0.00488281 t 0.24902 -0.0048828 q 0.371094 -0.00976563 0.756836 0.00976563 t 0.7959 0.039063 q 0.800781 0.0488281 1.40625 0.585938 l 0 0.0097656 Z M 13.7011 18.3887 l -0.0097656 0 q -0.136719 -0.0195313 -0.336914 -0.0195313 t -0.46387 0.019531 q -0.478516 0.0292969 -0.742188 -0.00976563 q -0.429688 -0.0683594 -0.527344 0 q -0.146484 0.107422 -0.146484 0.419922 t 0.0097656 0.61523 t -0.0097656 0.5957 q -0.0488281 0.732422 -0.0341797 1.4502 t 0.014648 1.4307 q 0 0.166016 0.117188 0.263672 q 0.117188 0.107422 0.458984 0.0585938 q 0.00976563 0 0.0244141 -0.00488281 t 0.024414 -0.0048828 q 0.195313 -0.00976563 0.366211 -0.00488281 t 0.32715 0.014648 q 0.585938 0.0390625 1.12305 -0.0585938 q 0.546875 -0.117188 0.849609 -0.712891 q 0.136719 -0.263672 0.239258 -0.507813 t 0.16113 -0.49316 t 0.073242 -0.5127 t -0.014648 -0.57617 q -0.0585938 -0.605469 -0.390625 -1.20117 q -0.166016 -0.283203 -0.444336 -0.46875 t -0.65918 -0.2832 Z M 22.8613 17.7246 q 0.292969 -0.00976563 0.292969 0.292969 q 0 0.410156 -0.00488281 0.800781 t -0.053711 0.80078 q -0.0488281 0.380859 -0.00488281 0.751953 t 0.043945 0.74219 l 0 0.068359 l -0.039063 0.66406 q -0.0195313 0.214844 -0.0488281 0.380859 t -0.048828 0.27344 l -0.019531 0.039063 l -0.019531 0.068359 l 0 0.0097656 q -0.0292969 0.117188 -0.107422 0.239258 t -0.1709 0.23438 t -0.2002 0.20996 t -0.19531 0.17578 q -0.166016 0.146484 -0.361328 0.234375 t -0.41016 0.12695 t -0.43457 0.053711 t -0.4248 0.014648 q -0.361328 0 -0.703125 -0.0830078 t -0.66406 -0.27832 q -0.0195313 -0.0195313 -0.0195313 -0.0292969 q -0.0292969 -0.00976563 -0.0488281 -0.0292969 l -0.039063 -0.039063 q -0.0292969 -0.0195313 -0.0488281 -0.0341797 t -0.039063 -0.043945 q -0.488281 -0.517578 -0.625 -1.28906 q -0.0585938 -0.380859 -0.078125 -0.74707 t 0 -0.71777 q 0.00976563 -0.0878906 0.0195313 -0.170898 t 0.019531 -0.1709 q 0.00976563 -0.117188 0.00488281 -0.224609 t -0.014648 -0.20508 q -0.0585938 -0.771484 -0.0292969 -1.82617 q 0.00976563 -0.205078 0.253906 -0.292969 q 0.195313 -0.0585938 0.332031 0.0390625 q 0.078125 0.078125 0.078125 0.175781 q 0.00976563 0.136719 0.00488281 0.351563 t -0.014648 0.49805 q 0 0.244141 -0.0195313 0.488281 t -0.019531 0.47852 q 0 0.292969 -0.0195313 0.571289 t -0.019531 0.56152 q 0 0.546875 0.175781 1.23047 q 0.0195313 0.0878906 0.0439453 0.161133 t 0.043945 0.15137 q 0.146484 0.458984 0.449219 0.634766 q 0.224609 0.136719 0.839844 0.175781 q 0.078125 0.00976563 0.15625 0.0244141 t 0.16602 0.014648 l 0.0097656 0 l 0.0097656 0 q 0.46875 0 0.820313 -0.166016 t 0.5957 -0.57617 q 0.195313 -0.332031 0.195313 -1.01563 l 0 -0.21973 t 0.0097656 -0.15137 q 0.0976563 -0.869141 -0.0195313 -1.81641 q -0.0195313 -0.126953 0.0292969 -0.46875 q 0.0195313 -0.136719 0.0292969 -0.244141 t 0.0097656 -0.18555 q 0 -0.419922 0.0585938 -0.566406 q 0.078125 -0.146484 0.273438 -0.146484 Z M 30.0586 22.959 q -0.166016 0.205078 -0.317383 0.361328 t -0.31738 0.26855 t -0.36621 0.18555 t -0.4541 0.10254 q -0.126953 0.0195313 -0.263672 0.0244141 t -0.29297 -0.014648 q -0.214844 -0.0195313 -0.419922 -0.0195313 t -0.41992 -0.048828 q -0.46875 -0.107422 -0.78125 -0.322266 t -0.47852 -0.55664 q -0.214844 -0.46875 0.244141 -0.488281 q 0.078125 0 0.180664 0.112305 t 0.16113 0.1709 q 0.205078 0.205078 0.234375 0.224609 l 0.0097656 0 l 0 0.0097656 q 0.478516 0.332031 1.26953 0.332031 l 0.0097656 0 l 0.0097656 0 q 0.332031 0 0.849609 -0.136719 q 0.507813 -0.126953 0.673828 -0.517578 q 0.0878906 -0.234375 0 -0.507813 l 0 -0.0097656 q -0.244141 -0.517578 -0.947266 -0.693359 l -1.2012 -0.3125 q -0.253906 -0.0585938 -0.615234 -0.244141 q -0.185547 -0.0976563 -0.322266 -0.175781 t -0.22461 -0.15625 q -0.400391 -0.292969 -0.46875 -0.585938 q -0.00976563 -0.0488281 -0.00976563 -0.136719 l 0 -0.21484 q 0 -0.136719 0.0195313 -0.268555 t 0.039063 -0.27832 q 0.0585938 -0.449219 0.380859 -0.800781 q 0.146484 -0.146484 0.356445 -0.249023 t 0.40527 -0.19043 q 0.273438 -0.126953 0.571289 -0.131836 t 0.59082 0.0048828 q 0.957031 0.0292969 1.49414 0.673828 q 0.244141 0.302734 0.185547 0.498047 l -0.068359 0.058594 q -0.15625 0.078125 -0.371094 -0.107422 q -0.0585938 -0.0390625 -0.107422 -0.0878906 l -0.097656 -0.097656 t -0.12695 -0.10254 t -0.17578 -0.10254 l -0.019531 -0.019531 l -0.029297 0 q -0.361328 -0.107422 -0.737305 -0.126953 t -0.77637 0.068359 q -0.478516 0.107422 -0.732422 0.395508 t -0.25391 0.7666 l 0 0.019531 l 0.0097656 0.019531 q 0.0390625 0.605469 0.9375 0.859375 l 0.2832 0.078125 l 0.72266 0.24414 q 0.166016 0.0585938 0.332031 0.131836 t 0.35156 0.15137 q 0.273438 0.126953 0.507813 0.244141 t 0.42969 0.24414 q 0.136719 0.0878906 0.209961 0.214844 t 0.097656 0.27344 t 0.019531 0.30273 t -0.03418 0.2832 q -0.0195313 0.107422 -0.0634766 0.205078 t -0.092773 0.17578 Z M 37.334 18.1934 q -0.136719 0.15625 -0.449219 0.136719 l -0.48828 -0.029297 q -0.146484 -0.00976563 -0.283203 -0.0195313 t -0.2832 -0.0097656 q -0.292969 -0.00976563 -0.429688 0.126953 q -0.107422 0.126953 -0.107422 0.419922 q 0 0.136719 0.0146484 0.268555 t 0.014648 0.26855 q 0.00976563 0.322266 0.0146484 0.561523 t 0.0048828 0.40527 q 0 0.498047 -0.0585938 0.996094 q -0.0292969 0.234375 0 0.46875 t 0.039063 0.45898 q 0.00976563 0.253906 0.0146484 0.439453 t 0.0048828 0.3125 l 0 0.13184 t -0.0097656 0.20996 q -0.0195313 0.263672 -0.0390625 0.322266 q -0.126953 0.214844 -0.332031 0.15625 q -0.253906 -0.0488281 -0.253906 -0.371094 q -0.00976563 -0.292969 0.0146484 -0.59082 t 0.043945 -0.59082 q 0.0292969 -0.341797 -0.00488281 -0.693359 t -0.03418 -0.70313 q 0 -0.322266 0.0244141 -0.649414 t 0.03418 -0.64941 q 0 -0.634766 -0.205078 -0.898438 q -0.107422 -0.136719 -0.258789 -0.209961 t -0.33691 -0.092773 t -0.34668 -0.03418 t -0.31738 -0.014648 l -0.29785 0 t -0.27832 -0.058594 q -0.078125 -0.0390625 -0.0976563 -0.185547 q -0.0195313 -0.107422 0.0292969 -0.185547 q 0.0683594 -0.117188 0.341797 -0.146484 q 0.0292969 -0.00976563 0.107422 -0.00976563 q 0.410156 -0.00976563 0.795898 0.0341797 t 0.7959 0.014648 q 0.166016 -0.00976563 0.327148 -0.0292969 t 0.33691 -0.019531 l 0.64941 0 t 0.64941 -0.0097656 q 0.166016 0 0.288086 0.00976563 t 0.20996 0.048828 q 0.302734 0.205078 0.15625 0.410156 Z M 43.6524 18.086 q 0.205078 0.205078 0.327148 0.449219 l 0.24902 0.49805 q 0.136719 0.283203 0.0830078 0.571289 t -0.31738 0.56152 q -0.205078 0.214844 -0.683594 0.341797 q -0.175781 0.0488281 -0.375977 0.102539 t -0.27832 0.22949 q -0.0585938 0.166016 0.0292969 0.341797 q 0.0976563 0.185547 0.15625 0.302734 t 0.097656 0.17578 q 0.0488281 0.0976563 0.126953 0.219727 t 0.18555 0.27832 q 0.224609 0.3125 0.473633 0.585938 t 0.50293 0.52734 l 0.048828 0.048828 q 0.214844 0.214844 0.00976563 0.419922 q -0.224609 0.224609 -0.429688 0.00976563 l -0.29297 -0.29297 t -0.23438 -0.25391 q -0.234375 -0.292969 -0.439453 -0.615234 q -0.146484 -0.214844 -0.297852 -0.415039 t -0.28809 -0.43457 q -0.390625 -0.703125 -0.966797 -0.927734 q -0.615234 -0.224609 -0.898438 0.175781 q -0.0878906 0.136719 -0.0878906 0.302734 l 0 2.1191 l 0 0.12695 q 0 0.292969 -0.302734 0.302734 q -0.302734 -0.00976563 -0.302734 -0.371094 q 0 -0.224609 0.0146484 -0.463867 t 0.024414 -0.5127 q 0.00976563 -0.185547 -0.00488281 -0.380859 t -0.014648 -0.38086 t 0.0097656 -0.37109 t 0.0097656 -0.37109 q 0.00976563 -0.439453 -0.0292969 -0.908203 q 0 -0.322266 0.0146484 -0.654297 t 0.0048828 -0.67383 q -0.00976563 -0.175781 -0.00976563 -0.395508 t 0.058594 -0.39551 q 0.175781 -0.234375 0.830078 -0.234375 l 0.30273 0 q 0.351563 0 0.708008 0.0292969 t 0.70801 0.0097656 q 0.810547 -0.0390625 1.2793 0.322266 Z M 40.9082 20.1953 q 0.371094 0.00976563 0.654297 0.00976563 t 0.47852 -0.019531 q 0.185547 -0.0195313 0.415039 -0.0488281 t 0.50293 -0.078125 q 0.556641 -0.117188 0.722656 -0.517578 q 0.0683594 -0.146484 0.0488281 -0.322266 t -0.1123 -0.32227 t -0.23438 -0.24902 t -0.30762 -0.17578 t -0.32227 -0.10254 q -0.410156 -0.078125 -0.81543 -0.0634766 t -0.81543 -0.0048828 q -0.078125 0 -0.151367 -0.00488281 t -0.15137 -0.0048828 q -0.205078 -0.00976563 -0.3125 0.107422 q -0.0878906 0.0976563 -0.0683594 0.273438 q 0.00976563 0.0488281 0.00976563 0.205078 q -0.00976563 0.146484 -0.0341797 0.283203 t -0.03418 0.27344 q -0.0585938 0.380859 0.0878906 0.566406 q 0.126953 0.175781 0.439453 0.195313 Z M 47.2266 23.8379 q -0.3125 -0.0488281 -0.3125 -0.371094 q -0.00976563 -0.527344 -0.00976563 -1.03516 l 0 -1.0352 q 0 -0.292969 0.0292969 -0.585938 q 0.0195313 -0.214844 0.0195313 -0.400391 t -0.0097656 -0.3418 q -0.00976563 -0.0976563 -0.0195313 -0.234375 t -0.019531 -0.32227 q 0 -0.0976563 0.00488281 -0.234375 t 0.014648 -0.32227 q 0.00976563 -0.136719 0.0146484 -0.239258 t 0.0048828 -0.18066 l 0 -0.21484 l 0 -0.0097656 l 0 -0.078125 q -0.0292969 -0.244141 0.00976563 -0.341797 q 0.0292969 -0.0683594 0.126953 -0.136719 q 0.380859 -0.195313 0.46875 0.244141 q 0.078125 0.332031 0.0927734 0.649414 t -0.014648 0.62988 l 0 0.0097656 q -0.0292969 0.302734 -0.0146484 0.605469 t -0.014648 0.60547 q -0.0292969 0.263672 -0.0488281 0.458984 t -0.029297 0.33203 q -0.0195313 0.195313 -0.0195313 0.405273 t 0.0097656 0.44434 q 0.00976563 0.0488281 0.00976563 0.112305 l 0 0.15137 l 0 0.3125 t 0.0097656 0.30273 q 0 0.107422 0.00488281 0.200195 t -0.0048828 0.19043 q 0 0.195313 -0.00976563 0.214844 q -0.0390625 0.185547 -0.292969 0.214844 Z M 55.791 23.5156 q 0 0.244141 -0.205078 0.3125 q -0.175781 0.078125 -0.3125 -0.117188 q -0.0683594 -0.0976563 -0.112305 -0.175781 t -0.073242 -0.14648 q -0.136719 -0.292969 -0.244141 -0.512695 t -0.21484 -0.35645 q -0.234375 -0.322266 -0.517578 -0.410156 q -0.244141 -0.078125 -0.78125 -0.0195313 q -0.3125 0.0390625 -0.59082 0.0488281 t -0.53223 -0.0097656 q -0.566406 -0.0390625 -0.839844 0.361328 l -0.019531 0.029297 l -0.0097656 0.019531 q -0.0976563 0.195313 -0.161133 0.385742 t -0.15137 0.36621 l -0.20508 0.32227 q -0.136719 0.205078 -0.283203 0.224609 q -0.0683594 0.0292969 -0.195313 -0.078125 q -0.0585938 -0.0585938 -0.0732422 -0.141602 t 0 -0.1709 t 0.048828 -0.18066 t 0.063477 -0.16113 l 0.23438 -0.48828 q 0.341797 -0.703125 0.639648 -1.42578 t 0.62988 -1.4551 q 0.0585938 -0.126953 0.102539 -0.239258 t 0.092773 -0.21973 q 0.107422 -0.263672 0.214844 -0.532227 t 0.24414 -0.53223 l 0.14648 -0.22461 q 0.107422 -0.175781 0.205078 -0.185547 q 0.0976563 -0.0195313 0.253906 0.166016 q 0.166016 0.195313 0.317383 0.458984 t 0.25879 0.49805 q 0.341797 0.722656 0.639648 1.4502 t 0.63965 1.4307 q 0.107422 0.214844 0.209961 0.43457 t 0.21973 0.4248 q 0.0585938 0.146484 0.12207 0.283203 t 0.12207 0.27344 q 0.0488281 0.107422 0.078125 0.175781 t 0.039063 0.11719 Z M 53.8574 20.7813 q -0.0976563 -0.234375 -0.19043 -0.483398 t -0.21973 -0.4834 q -0.234375 -0.449219 -0.517578 -0.429688 q -0.107422 0 -0.19043 0.0585938 t -0.1416 0.1416 t -0.10742 0.18066 t -0.078125 0.18555 q -0.107422 0.292969 -0.205078 0.605469 t -0.18555 0.60547 q -0.0683594 0.214844 0.0195313 0.322266 q 0.0585938 0.0976563 0.302734 0.117188 q 0.214844 0.00976563 0.380859 0.0146484 t 0.27344 -0.0048828 q 0.214844 0 0.566406 -0.0585938 q 0.361328 -0.0585938 0.429688 -0.322266 q 0.0292969 -0.15625 -0.0390625 -0.263672 q -0.0195313 -0.0390625 -0.0537109 -0.0927734 t -0.043945 -0.092773 Z M 62.0313 23.3301 q 0.117188 0.078125 0.117188 0.214844 q 0.00976563 0.322266 -0.380859 0.322266 q -0.703125 0 -1.40625 -0.0195313 t -1.4063 0.029297 q -0.556641 0.0292969 -0.673828 -0.302734 q -0.0585938 -0.146484 -0.0585938 -0.458984 q 0.00976563 -0.166016 0.0146484 -0.288086 t 0.0048828 -0.20996 q 0.00976563 -0.214844 0.0244141 -0.444336 t 0.0048828 -0.4541 q -0.0195313 -0.46875 -0.0390625 -0.913086 t -0.0097656 -0.91309 q 0.00976563 -0.224609 0.0195313 -0.444336 t 0.0097656 -0.4541 q 0.00976563 -0.283203 0.00488281 -0.522461 t -0.024414 -0.43457 q -0.0195313 -0.263672 0.244141 -0.3125 q 0.380859 -0.078125 0.410156 0.449219 q 0.0195313 0.224609 0.0292969 0.43457 t 0.029297 0.40527 l 0 0.25391 l -0.039063 0.37109 q -0.0195313 0.15625 -0.0341797 0.3125 t -0.024414 0.30273 q -0.0195313 0.371094 -0.0195313 0.649414 t 0.0097656 0.46387 q 0.0195313 0.234375 0.0244141 0.488281 t -0.014648 0.53711 q -0.0195313 0.429688 0.117188 0.566406 q 0.107422 0.126953 0.458984 0.15625 q 0.175781 0.0195313 0.34668 0.0292969 t 0.34668 0.029297 q 0.263672 0.0292969 0.537109 0.00488281 t 0.54688 0.014648 q 0.175781 0.0195313 0.424805 0.0341797 t 0.40527 0.10254 Z M 68.5449 23.6328 q -0.0390625 0.175781 -0.302734 0.205078 q -0.273438 -0.00976563 -0.273438 -0.302734 q 0 -0.761719 -0.0341797 -1.53809 t 0.043945 -1.5381 l 0 -0.0097656 q 0 -0.224609 0.00488281 -0.439453 t -0.014648 -0.41992 l -0.078125 -0.74219 q -0.0292969 -0.3125 0.0976563 -0.673828 q 0.0976563 -0.253906 0.263672 -0.302734 q 0.136719 -0.0292969 0.283203 0.136719 q 0.136719 0.146484 0.205078 0.253906 q 0.126953 0.185547 0.258789 0.332031 t 0.25879 0.27344 q 0.107422 0.126953 0.219727 0.219727 t 0.21973 0.20996 q 0.0976563 0.0976563 0.214844 0.249023 t 0.25391 0.35645 l 0.42969 0.66406 q 0.0488281 0.0683594 0.102539 0.15625 t 0.13184 0.20508 l 0.0097656 0.0097656 q 0.205078 0.273438 0.429688 0.517578 q 0.107422 0.117188 0.214844 0.219727 t 0.22461 0.20996 q 0.107422 0.126953 0.253906 0.078125 q 0.224609 -0.0585938 0.214844 -0.449219 q 0 -0.0976563 -0.0146484 -0.205078 t -0.014648 -0.21484 q -0.00976563 -0.078125 -0.0195313 -0.151367 t -0.0097656 -0.16113 q 0 -0.0390625 -0.00488281 -0.0878906 t -0.0048828 -0.10742 q 0.0390625 -0.859375 -0.0585938 -1.60156 q -0.00976563 -0.0488281 -0.00976563 -0.161133 t 0.019531 -0.28809 q 0.00976563 -0.214844 0.0585938 -0.458984 q 0.0292969 -0.351563 0.3125 -0.351563 q 0.3125 0 0.3125 0.371094 q 0.00976563 0.302734 0.0244141 0.610352 t 0.014648 0.61035 q 0.00976563 0.449219 -0.0195313 0.898438 t -0.0097656 0.89844 q 0.0195313 0.302734 0.0146484 0.595703 t -0.014648 0.58594 q 0 0.166016 0.00488281 0.327148 t 0.0048828 0.30762 l 0 0.39063 q -0.00976563 0.0585938 -0.0146484 0.117188 t -0.0048828 0.10742 q -0.00976563 0.00976563 -0.00976563 0.0195313 t -0.0097656 0.0097656 q -0.107422 0.146484 -0.332031 0.146484 q -0.263672 0.0195313 -0.400391 -0.166016 q -0.146484 -0.185547 -0.268555 -0.400391 t -0.26855 -0.41992 q -0.175781 -0.234375 -0.385742 -0.50293 t -0.46387 -0.57129 q -0.0976563 -0.107422 -0.273438 -0.390625 l -0.3418 -0.54688 q -0.126953 -0.195313 -0.253906 -0.395508 t -0.26367 -0.38574 q -0.0585938 -0.0683594 -0.126953 -0.151367 t -0.14648 -0.1416 t -0.17578 -0.087891 t -0.19531 0 q -0.263672 0.078125 -0.244141 0.537109 q 0.00976563 0.332031 0.0146484 0.625 t 0.024414 0.54688 q 0.0195313 0.205078 -0.00488281 0.410156 t -0.024414 0.40039 l 0 0.76172 q 0 0.244141 -0.0146484 0.439453 t -0.03418 0.35156 Z M 75.4785 23.252 q -0.00976563 -0.595703 -0.00488281 -1.19141 t 0.0048828 -1.1914 l 0 -0.3418 q 0 -0.263672 -0.0146484 -0.532227 t 0.0048828 -0.53223 q 0.00976563 -0.292969 0.00976563 -0.581055 t 0.0097656 -0.58105 q 0 -0.351563 0.166016 -0.488281 q 0.126953 -0.0976563 0.449219 -0.0976563 q 0.166016 -0.00976563 0.288086 -0.0146484 t 0.20996 -0.0048828 q 0.380859 -0.00976563 0.761719 0.00488281 t 0.76172 0.0048828 q 0.205078 -0.00976563 0.410156 -0.0146484 t 0.40039 0.014648 l 0.49805 0.029297 q 0.0878906 0.00976563 0.151367 0.00976563 t 0.1123 0.019531 q 0.205078 0.107422 0.195313 0.302734 q -0.00976563 0.0878906 -0.0683594 0.141602 t -0.13184 0.083008 t -0.15137 0.039063 t -0.13672 0.0097656 q -0.595703 0 -1.18164 -0.0292969 q -0.0585938 -0.00976563 -0.146484 -0.00976563 l -0.19531 0 l -0.56641 0 q -0.224609 0 -0.400391 0.00488281 t -0.29297 0.0048828 q -0.166016 0.00976563 -0.273438 0.0439453 t -0.15625 0.1123 q -0.078125 0.117188 -0.0585938 0.292969 l 0 0.13672 t -0.0097656 0.10742 q -0.0195313 0.117188 -0.0292969 0.249023 t 0 0.28809 q 0 0.273438 0.214844 0.458984 q 0.175781 0.15625 0.634766 0.126953 q 0.205078 -0.00976563 0.405273 -0.0341797 t 0.40527 -0.014648 q 0.0878906 0 0.229492 0.00488281 t 0.33691 -0.0048828 q 0.390625 -0.00976563 0.527344 0.136719 q 0.0488281 0.0683594 0.0390625 0.224609 q -0.0292969 0.175781 -0.273438 0.214844 q -0.224609 0.0390625 -0.361328 0.0390625 q -0.175781 0.00976563 -0.34668 0.00488281 t -0.34668 0.0048828 q -0.214844 0.0195313 -0.439453 0.00976563 t -0.46875 -0.029297 q -0.0292969 0 -0.0683594 -0.00488281 t -0.068359 -0.0048828 l -0.0097656 0 q -0.107422 -0.0195313 -0.214844 0.0488281 q -0.175781 0.107422 -0.195313 0.371094 q -0.0195313 0.253906 0 0.439453 q 0.00976563 0.107422 0.0146484 0.195313 t -0.0048828 0.15625 q -0.0195313 0.146484 -0.0341797 0.288086 t -0.03418 0.28809 q -0.0292969 0.371094 0.0976563 0.556641 q 0.166016 0.224609 0.576172 0.224609 q 0.322266 0 0.654297 -0.0146484 t 0.66406 -0.03418 q 0.302734 -0.00976563 0.620117 0.0195313 t 0.62988 0.029297 q 0.117188 0 0.3125 -0.00488281 t 0.30273 0.053711 q 0.0976563 0.0585938 0.107422 0.175781 q 0.107422 0.351563 -0.302734 0.371094 q -0.644531 0.0292969 -1.26465 0.0195313 t -1.2451 0 q -0.0390625 0 -0.0732422 0.00488281 t -0.063477 0.0048828 l -0.38574 0 t -0.26855 -0.0097656 q -0.0683594 0 -0.161133 -0.00488281 t -0.20996 -0.014648 q -0.0976563 -0.00976563 -0.161133 -0.0195313 t -0.092773 -0.019531 q -0.292969 -0.0878906 -0.292969 -0.546875 Z M 86.8946 18.1934 q -0.136719 0.15625 -0.449219 0.136719 l -0.48828 -0.029297 q -0.146484 -0.00976563 -0.283203 -0.0195313 t -0.2832 -0.0097656 q -0.292969 -0.00976563 -0.429688 0.126953 q -0.107422 0.126953 -0.107422 0.419922 q 0 0.136719 0.0146484 0.268555 t 0.014648 0.26855 q 0.00976563 0.322266 0.0146484 0.561523 t 0.0048828 0.40527 q 0 0.498047 -0.0585938 0.996094 q -0.0292969 0.234375 0 0.46875 t 0.039063 0.45898 q 0.00976563 0.253906 0.0146484 0.439453 t 0.0048828 0.3125 l 0 0.13184 t -0.0097656 0.20996 q -0.0195313 0.263672 -0.0390625 0.322266 q -0.126953 0.214844 -0.332031 0.15625 q -0.253906 -0.0488281 -0.253906 -0.371094 q -0.00976563 -0.292969 0.0146484 -0.59082 t 0.043945 -0.59082 q 0.0292969 -0.341797 -0.00488281 -0.693359 t -0.03418 -0.70313 q 0 -0.322266 0.0244141 -0.649414 t 0.03418 -0.64941 q 0 -0.634766 -0.205078 -0.898438 q -0.107422 -0.136719 -0.258789 -0.209961 t -0.33691 -0.092773 t -0.34668 -0.03418 t -0.31738 -0.014648 l -0.29785 0 t -0.27832 -0.058594 q -0.078125 -0.0390625 -0.0976563 -0.185547 q -0.0195313 -0.107422 0.0292969 -0.185547 q 0.0683594 -0.117188 0.341797 -0.146484 q 0.0292969 -0.00976563 0.107422 -0.00976563 q 0.410156 -0.00976563 0.795898 0.0341797 t 0.7959 0.014648 q 0.166016 -0.00976563 0.327148 -0.0292969 t 0.33691 -0.019531 l 0.64941 0 t 0.64941 -0.0097656 q 0.166016 0 0.288086 0.00976563 t 0.20996 0.048828 q 0.302734 0.205078 0.15625 0.410156 Z M 92.334 20.752 q 0.126953 -0.214844 0.253906 -0.214844 q 0.117188 0.00976563 0.205078 0.214844 q 0.107422 0.234375 0.219727 0.444336 t 0.21973 0.4541 l 0.12695 0.30273 q 0.117188 0.263672 0.3125 0.234375 q 0.00976563 0 0.0683594 -0.0195313 q 0.166016 -0.0488281 0.195313 -0.3125 q 0.0195313 -0.078125 0.0292969 -0.161133 t 0.029297 -0.1709 q 0.0292969 -0.15625 0.0537109 -0.292969 t 0.063477 -0.24414 q 0.0292969 -0.0878906 0.0878906 -0.214844 t 0.13672 -0.29297 q 0.214844 -0.46875 0.366211 -0.957031 t 0.29785 -0.98633 l 0.10742 -0.37109 q 0.0683594 -0.263672 0.15625 -0.351563 q 0.15625 -0.166016 0.390625 -0.0390625 q 0.185547 0.126953 0.0976563 0.410156 q -0.146484 0.458984 -0.351563 0.849609 q -0.0488281 0.117188 -0.0878906 0.253906 q -0.0195313 0.078125 -0.0439453 0.161133 t -0.053711 0.18066 q -0.0488281 0.166016 -0.078125 0.302734 t -0.058594 0.24414 q -0.0488281 0.195313 -0.078125 0.332031 t -0.048828 0.20508 q -0.136719 0.46875 -0.283203 0.908203 t -0.32227 0.87891 q -0.0683594 0.15625 -0.102539 0.332031 t -0.073242 0.33203 q -0.0878906 0.429688 -0.244141 0.566406 q -0.107422 0.078125 -0.234375 0.078125 q -0.117188 0 -0.209961 -0.0585938 t -0.16113 -0.15625 t -0.1123 -0.20508 t -0.073242 -0.21484 q -0.0585938 -0.146484 -0.0976563 -0.307617 t -0.097656 -0.32715 q -0.136719 -0.380859 -0.400391 -0.380859 q -0.244141 0 -0.371094 0.244141 q -0.0683594 0.126953 -0.117188 0.229492 t -0.078125 0.19043 q -0.0488281 0.117188 -0.0830078 0.239258 t -0.063477 0.23926 l 0 0.0097656 q -0.0878906 0.341797 -0.175781 0.429688 q -0.078125 0.0585938 -0.292969 0.0585938 q -0.244141 -0.00976563 -0.332031 -0.429688 q -0.0195313 -0.126953 -0.0537109 -0.219727 t -0.053711 -0.1709 q -0.224609 -0.498047 -0.390625 -1.01074 t -0.3125 -1.04 q -0.0976563 -0.322266 -0.180664 -0.644531 t -0.20996 -0.64453 q -0.078125 -0.214844 -0.15625 -0.419922 t -0.13672 -0.41016 l -0.083008 -0.24902 t -0.073242 -0.26855 q -0.0390625 -0.146484 -0.0390625 -0.283203 q 0.0195313 -0.273438 0.273438 -0.283203 q 0.234375 -0.00976563 0.3125 0.273438 q 0.0683594 0.244141 0.126953 0.473633 t 0.15625 0.46387 q 0.126953 0.332031 0.268555 0.639648 t 0.22949 0.64941 q 0.0488281 0.15625 0.0976563 0.297852 t 0.10742 0.28809 q 0.0976563 0.234375 0.126953 0.429688 q 0.0292969 0.146484 0.0585938 0.297852 t 0.058594 0.28809 q 0.0878906 0.361328 0.302734 0.371094 q 0.214844 0.0390625 0.410156 -0.332031 q 0.0683594 -0.136719 0.141602 -0.273438 t 0.15137 -0.2832 q 0.0683594 -0.126953 0.146484 -0.429688 q 0 -0.0292969 0.00976563 -0.0634766 t 0.019531 -0.063477 Z M 100.273 23.8184 q -0.195313 -0.0585938 -0.395508 -0.151367 t -0.39063 -0.21484 t -0.35645 -0.27344 t -0.2832 -0.32715 q -0.15625 -0.244141 -0.224609 -0.50293 t -0.19531 -0.53223 q -0.0976563 -0.214844 -0.107422 -0.46875 q -0.00976563 -0.117188 -0.0244141 -0.239258 t -0.014648 -0.23926 q -0.00976563 -0.117188 -0.0146484 -0.205078 t -0.0048828 -0.14648 q 0 -0.185547 0.0244141 -0.385742 t 0.073242 -0.41504 q 0.00976563 -0.0683594 0.0585938 -0.175781 q 0.0976563 -0.292969 0.249023 -0.551758 t 0.34668 -0.4834 q 0.380859 -0.429688 1.06445 -0.761719 q 0.3125 -0.136719 0.654297 -0.126953 q 0.214844 0.0195313 0.429688 0.0585938 q 0.175781 0.0292969 0.307617 0.0439453 t 0.22949 0.03418 q 0.751953 0.0878906 1.32813 0.664063 q 0.126953 0.126953 0.239258 0.27832 t 0.21973 0.32715 l 0.048828 0.078125 q 0.00976563 0.0292969 0.0195313 0.0488281 l 0.019531 0.039063 q 0.166016 0.390625 0.302734 0.976563 q 0.126953 0.546875 0.0390625 1.00586 q -0.0585938 0.263672 -0.146484 0.507813 t -0.15625 0.48828 q -0.380859 1.30859 -1.71875 1.65039 l -0.078125 0.019531 q -0.078125 0.0195313 -0.195313 0.0390625 t -0.27344 0.039063 q -0.253906 0.0292969 -0.522461 0.00976563 t -0.55176 -0.10742 Z M 101.26 18.2324 q -0.527344 0 -0.952148 0.126953 t -0.7666 0.46875 q -0.46875 0.46875 -0.595703 1.04004 t 0.0097656 1.2744 l 0.087891 0.47852 q 0.0195313 0.136719 0.0390625 0.219727 t 0.029297 0.10254 q 0.0585938 0.214844 0.234375 0.410156 t 0.32227 0.3418 q 0.078125 0.0878906 0.15625 0.170898 t 0.16602 0.15137 q 0.146484 0.126953 0.488281 0.234375 l 0.0097656 0 q 0.185547 0.0488281 0.415039 0.0341797 t 0.5127 -0.083008 q 0.136719 -0.0390625 0.27832 -0.0537109 t 0.28809 -0.053711 q 0.361328 -0.0878906 0.605469 -0.390625 l 0.0097656 0 l 0 -0.0097656 q 0.15625 -0.185547 0.263672 -0.46875 q 0.0976563 -0.283203 0.146484 -0.361328 q 0.488281 -0.957031 0.146484 -2.07031 l -0.0097656 -0.0097656 q -0.0390625 -0.107422 -0.078125 -0.205078 t -0.10742 -0.19531 q -0.380859 -0.576172 -0.908203 -0.830078 q -0.0195313 -0.00976563 -0.0878906 -0.0488281 t -0.19531 -0.11719 q -0.175781 -0.107422 -0.498047 -0.15625 l -0.0097656 0 Z M 110.4 18.086 q 0.205078 0.205078 0.327148 0.449219 l 0.24902 0.49805 q 0.136719 0.283203 0.0830078 0.571289 t -0.31738 0.56152 q -0.205078 0.214844 -0.683594 0.341797 q -0.175781 0.0488281 -0.375977 0.102539 t -0.27832 0.22949 q -0.0585938 0.166016 0.0292969 0.341797 q 0.0976563 0.185547 0.15625 0.302734 t 0.097656 0.17578 q 0.0488281 0.0976563 0.126953 0.219727 t 0.18555 0.27832 q 0.224609 0.3125 0.473633 0.585938 t 0.50293 0.52734 l 0.048828 0.048828 q 0.214844 0.214844 0.00976563 0.419922 q -0.224609 0.224609 -0.429688 0.00976563 l -0.29297 -0.29297 t -0.23438 -0.25391 q -0.234375 -0.292969 -0.439453 -0.615234 q -0.146484 -0.214844 -0.297852 -0.415039 t -0.28809 -0.43457 q -0.390625 -0.703125 -0.966797 -0.927734 q -0.615234 -0.224609 -0.898438 0.175781 q -0.0878906 0.136719 -0.0878906 0.302734 l 0 2.1191 l 0 0.12695 q 0 0.292969 -0.302734 0.302734 q -0.302734 -0.00976563 -0.302734 -0.371094 q 0 -0.224609 0.0146484 -0.463867 t 0.024414 -0.5127 q 0.00976563 -0.185547 -0.00488281 -0.380859 t -0.014648 -0.38086 t 0.0097656 -0.37109 t 0.0097656 -0.37109 q 0.00976563 -0.439453 -0.0292969 -0.908203 q 0 -0.322266 0.0146484 -0.654297 t 0.0048828 -0.67383 q -0.00976563 -0.175781 -0.00976563 -0.395508 t 0.058594 -0.39551 q 0.175781 -0.234375 0.830078 -0.234375 l 0.30273 0 q 0.351563 0 0.708008 0.0292969 t 0.70801 0.0097656 q 0.810547 -0.0390625 1.2793 0.322266 Z M 107.656 20.1953 q 0.371094 0.00976563 0.654297 0.00976563 t 0.47852 -0.019531 q 0.185547 -0.0195313 0.415039 -0.0488281 t 0.50293 -0.078125 q 0.556641 -0.117188 0.722656 -0.517578 q 0.0683594 -0.146484 0.0488281 -0.322266 t -0.1123 -0.32227 t -0.23438 -0.24902 t -0.30762 -0.17578 t -0.32227 -0.10254 q -0.410156 -0.078125 -0.81543 -0.0634766 t -0.81543 -0.0048828 q -0.078125 0 -0.151367 -0.00488281 t -0.15137 -0.0048828 q -0.205078 -0.00976563 -0.3125 0.107422 q -0.0878906 0.0976563 -0.0683594 0.273438 q 0.00976563 0.0488281 0.00976563 0.205078 q -0.00976563 0.146484 -0.0341797 0.283203 t -0.03418 0.27344 q -0.0585938 0.380859 0.0878906 0.566406 q 0.126953 0.175781 0.439453 0.195313 Z M 113.652 17.8321 q 0.498047 -0.410156 0.556641 0.244141 q 0.0195313 0.136719 0.0195313 0.283203 t -0.0097656 0.3125 q -0.00976563 0.175781 -0.0146484 0.341797 t -0.0048828 0.33203 q 0.0195313 0.488281 0.253906 0.576172 q 0.224609 0.0878906 0.478516 -0.195313 q 0.175781 -0.195313 0.371094 -0.405273 t 0.42969 -0.40527 q 0.195313 -0.166016 0.380859 -0.341797 l 0.37109 -0.35156 q 0.0390625 -0.0390625 0.12207 -0.102539 t 0.20996 -0.16113 q 0.234375 -0.185547 0.351563 -0.214844 q 0.214844 -0.0390625 0.322266 0.107422 q 0.0878906 0.166016 -0.0683594 0.332031 q -0.136719 0.185547 -0.244141 0.307617 t -0.17578 0.19043 q -0.136719 0.136719 -0.498047 0.410156 q -0.15625 0.117188 -0.322266 0.253906 t -0.30273 0.27344 q -0.244141 0.273438 -0.273438 0.507813 q -0.00976563 0.107422 0.0244141 0.249023 t 0.13184 0.31738 q 0.0878906 0.175781 0.185547 0.34668 t 0.18555 0.34668 l 0.087891 0.17578 t 0.058594 0.12695 l 0 0.0097656 q 0.224609 0.429688 0.556641 0.825195 t 0.74219 0.7959 q 0.214844 0.205078 0 0.419922 q -0.214844 0.224609 -0.429688 0.00976563 q -0.751953 -0.712891 -1.11328 -1.28906 q -0.234375 -0.351563 -0.419922 -0.737305 t -0.36133 -0.7666 q -0.15625 -0.322266 -0.361328 -0.332031 q -0.175781 0 -0.439453 0.3125 q -0.107422 0.136719 -0.15625 0.283203 t -0.068359 0.30273 q -0.0195313 0.234375 0.0292969 0.463867 t 0.019531 0.4541 q 0 0.0585938 -0.00976563 0.078125 q -0.0390625 0.273438 -0.0488281 0.522461 t 0 0.4834 q 0 0.283203 -0.322266 0.3125 q -0.283203 -0.00976563 -0.283203 -0.302734 q 0 -0.46875 -0.0146484 -0.932617 t -0.03418 -0.94238 q -0.0195313 -0.341797 0.0292969 -0.693359 t 0.048828 -0.70313 q 0 -0.126953 0.00488281 -0.263672 t 0.0048828 -0.27344 q 0.00976563 -0.507813 0 -0.703125 l -0.10742 -0.60547 q -0.0585938 -0.361328 0.107422 -0.585938 Z M 124.395 22.959 q -0.166016 0.205078 -0.317383 0.361328 t -0.31738 0.26855 t -0.36621 0.18555 t -0.4541 0.10254 q -0.126953 0.0195313 -0.263672 0.0244141 t -0.29297 -0.014648 q -0.214844 -0.0195313 -0.419922 -0.0195313 t -0.41992 -0.048828 q -0.46875 -0.107422 -0.78125 -0.322266 t -0.47852 -0.55664 q -0.214844 -0.46875 0.244141 -0.488281 q 0.078125 0 0.180664 0.112305 t 0.16113 0.1709 q 0.205078 0.205078 0.234375 0.224609 l 0.0097656 0 l 0 0.0097656 q 0.478516 0.332031 1.26953 0.332031 l 0.0097656 0 l 0.0097656 0 q 0.332031 0 0.849609 -0.136719 q 0.507813 -0.126953 0.673828 -0.517578 q 0.0878906 -0.234375 0 -0.507813 l 0 -0.0097656 q -0.244141 -0.517578 -0.947266 -0.693359 l -1.2012 -0.3125 q -0.253906 -0.0585938 -0.615234 -0.244141 q -0.185547 -0.0976563 -0.322266 -0.175781 t -0.22461 -0.15625 q -0.400391 -0.292969 -0.46875 -0.585938 q -0.00976563 -0.0488281 -0.00976563 -0.136719 l 0 -0.21484 q 0 -0.136719 0.0195313 -0.268555 t 0.039063 -0.27832 q 0.0585938 -0.449219 0.380859 -0.800781 q 0.146484 -0.146484 0.356445 -0.249023 t 0.40527 -0.19043 q 0.273438 -0.126953 0.571289 -0.131836 t 0.59082 0.0048828 q 0.957031 0.0292969 1.49414 0.673828 q 0.244141 0.302734 0.185547 0.498047 l -0.068359 0.058594 q -0.15625 0.078125 -0.371094 -0.107422 q -0.0585938 -0.0390625 -0.107422 -0.0878906 l -0.097656 -0.097656 t -0.12695 -0.10254 t -0.17578 -0.10254 l -0.019531 -0.019531 l -0.029297 0 q -0.361328 -0.107422 -0.737305 -0.126953 t -0.77637 0.068359 q -0.478516 0.107422 -0.732422 0.395508 t -0.25391 0.7666 l 0 0.019531 l 0.0097656 0.019531 q 0.0390625 0.605469 0.9375 0.859375 l 0.2832 0.078125 l 0.72266 0.24414 q 0.166016 0.0585938 0.332031 0.131836 t 0.35156 0.15137 q 0.273438 0.126953 0.507813 0.244141 t 0.42969 0.24414 q 0.136719 0.0878906 0.209961 0.214844 t 0.097656 0.27344 t 0.019531 0.30273 t -0.03418 0.2832 q -0.0195313 0.107422 -0.0634766 0.205078 t -0.092773 0.17578 Z"/></g>
			</g>
		</svg>
    